<svg width="55" height="23" fill="none" xmlns="http://www.w3.org/2000/svg">
  <path d="M40.9467 5.75c-3.6397-.9914-7.886-1.6853-12.5367-1.6853-2.932 0-5.5607.1982-7.785.5948L13.75 0H.1011l5.864 6.1466h8.4926c-4.6507 1.5862-6.875 3.4698-6.875 3.4698v3.7672s2.3254 1.8836 6.9761 3.4698H5.864L0 23h13.6489l6.875-4.6595c2.3253.3966 4.8529.5949 7.7849.5949 4.5496 0 8.796-.694 12.5368-1.6854-1.2132-1.7845-1.921-3.6681-1.921-5.8491.1011-1.9828.9099-3.8664 2.0221-5.6509Zm3.5386.9912c-1.3144 1.5862-2.0221 3.1724-2.0221 4.7586 0 1.5862.7077 3.1724 2.0221 4.7587C50.9559 14.0774 55 11.4998 55 11.4998s-4.0441-2.5776-10.5147-4.7586Z" fill="#63D1BB"/>
</svg>
